# xmcd CD database file
#
# Track frame offsets:
#	150
#	41532
#	65746
#	89248
#	110728
#	130467
#	151743
#	182967
#	207312
#	233115
#	255286
#	282885
#	309066
#	324691
#
# Disc length: 4759 seconds
#
# Revision: 1
# Processed by: cddbd v1.5.2PL0 Copyright (c) Steve Scherf et al.
# Submitted via: CDex 1.70beta2
#
DISCID=ca12950e
DTITLE=Miles Davis - 1986 -1991 The Warner Years (Disc-5)
DYEAR=2011
DGENRE=Jazz
TTITLE0=Maze
TTITLE1=See I See
TTITLE2=Rubber Band
TTITLE3=Digg That
TTITLE4=Oh Patti (Don't Feel Sorry For Loverboy) (Scritti Politti feat. Miles Davis)
TTITLE5=In The Night (Cameo feat. Miles Davis)
TTITLE6=Sticky Wicked (Chaka Khan feat. Miles Davis)
TTITLE7=I'll Be Around (Chaka Khan feat. Miles Davis)
TTITLE8=Dune Mosse (Zucchero feat. Miles Davis)
TTITLE9=Big Ol' Head (Kenny Garret feat. Miles Davis)
TTITLE10=Free Mandela (Kenny Garret feat. Miles Davis)
TTITLE11=Rampage (Marcus Miller Featuring Miles Davis)
TTITLE12=Gloria's Story
TTITLE13=You Won't Forget Me (Shirley Horn feat. Miles Davis)
EXTD=YEAR: 2011
EXTT0=
EXTT1=
EXTT2=
EXTT3=
EXTT4=
EXTT5=
EXTT6=
EXTT7=
EXTT8=
EXTT9=
EXTT10=
EXTT11=
EXTT12=
EXTT13=
PLAYORDER=
